<svg width="32" height="32" viewBox="0 0 32 32" fill="none" xmlns="http://www.w3.org/2000/svg">
<g clip-path="url(#clip0_700_1636)">
<mask id="mask0_700_1636" style="mask-type:alpha" maskUnits="userSpaceOnUse" x="0" y="0" width="32" height="32">
<rect width="32" height="32" rx="8" fill="white"/>
</mask>
<g mask="url(#mask0_700_1636)">
<rect width="32" height="32" fill="white"/>
</g>
<mask id="mask1_700_1636" style="mask-type:alpha" maskUnits="userSpaceOnUse" x="0" y="0" width="32" height="32">
<rect width="32" height="32" rx="8" fill="white"/>
</mask>
<g mask="url(#mask1_700_1636)">
<rect x="24" width="8" height="8" fill="#7C3AED" fill-opacity="0.9"/>
<rect x="16" width="8" height="8" fill="#7C3AED" fill-opacity="0.9"/>
<rect x="24" y="8" width="8" height="8" fill="#7C3AED" fill-opacity="0.8"/>
<rect x="8" width="8" height="8" fill="#7C3AED" fill-opacity="0.8"/>
<rect x="16" y="8" width="8" height="8" fill="#DC2626" fill-opacity="0.75"/>
<rect x="24" y="16" width="8" height="8" fill="#EA580C" fill-opacity="0.75"/>
<rect width="8" height="8" fill="#DC2626" fill-opacity="0.75"/>
<rect x="8" y="8" width="8" height="8" fill="#EA580C" fill-opacity="0.75"/>
<rect x="16" y="16" width="8" height="8" fill="#CA8A04" fill-opacity="0.75"/>
<rect y="8" width="8" height="8" fill="#EA580C" fill-opacity="0.75"/>
<rect x="8" y="16" width="8" height="8" fill="#CA8A04" fill-opacity="0.75"/>
<rect y="16" width="8" height="8" fill="#16A34A" fill-opacity="0.8"/>
<rect x="8" y="24" width="8" height="8" fill="#16A34A" fill-opacity="0.9"/>
<rect y="24" width="8" height="8" fill="#16A34A" fill-opacity="0.9"/>
<rect x="16" y="24" width="8" height="8" fill="#16A34A" fill-opacity="0.8"/>
<rect x="24" y="24" width="8" height="8" fill="#CA8A04" fill-opacity="0.75"/>
</g>
</g>
<defs>
<clipPath id="clip0_700_1636">
<rect width="32" height="32" fill="white"/>
</clipPath>
</defs>
</svg>
